<svg width="8" height="8" viewBox="0 0 8 8" fill="none" xmlns="http://www.w3.org/2000/svg">
<path d="M4.93996 4.00029L7.80663 1.14029C7.93216 1.01475 8.00269 0.844487 8.00269 0.666953C8.00269 0.489419 7.93216 0.319156 7.80663 0.19362C7.68109 0.0680839 7.51083 -0.00244141 7.33329 -0.00244141C7.15576 -0.00244141 6.9855 0.0680839 6.85996 0.19362L3.99996 3.06029L1.13996 0.19362C1.01442 0.0680839 0.84416 -0.00244141 0.666626 -0.00244141C0.489092 -0.0024414 0.318828 0.0680839 0.193293 0.19362C0.0677568 0.319156 -0.00276852 0.489419 -0.00276852 0.666953C-0.00276852 0.844487 0.0677568 1.01475 0.193293 1.14029L3.05996 4.00029L0.193293 6.86029C0.130807 6.92226 0.081211 6.996 0.0473652 7.07723C0.0135194 7.15847 -0.00390625 7.24561 -0.00390625 7.33362C-0.00390625 7.42163 0.0135194 7.50876 0.0473652 7.59C0.081211 7.67124 0.130807 7.74498 0.193293 7.80695C0.255268 7.86944 0.329002 7.91903 0.410241 7.95288C0.491481 7.98673 0.578618 8.00415 0.666626 8.00415C0.754634 8.00415 0.841771 7.98673 0.923011 7.95288C1.00425 7.91903 1.07798 7.86944 1.13996 7.80695L3.99996 4.94029L6.85996 7.80695C6.92194 7.86944 6.99567 7.91903 7.07691 7.95288C7.15815 7.98673 7.24529 8.00415 7.33329 8.00415C7.4213 8.00415 7.50844 7.98673 7.58968 7.95288C7.67092 7.91903 7.74465 7.86944 7.80663 7.80695C7.86911 7.74498 7.91871 7.67124 7.95255 7.59C7.9864 7.50876 8.00383 7.42163 8.00383 7.33362C8.00383 7.24561 7.9864 7.15847 7.95255 7.07723C7.91871 6.996 7.86911 6.92226 7.80663 6.86029L4.93996 4.00029Z" fill="current"/>
</svg>
